<svg width="200" height="200" viewBox="0 0 200 200" fill="none" xmlns="http://www.w3.org/2000/svg">
<g clip-path="url(#clip0_1535_9388)">
<rect width="200" height="200" fill="#3763FF"/>
<circle cx="100" cy="100" r="100" fill="#3763FF"/>
<path d="M49.3262 47.4424L80.5136 78.4668C85.8423 73.166 93.1979 69.8814 101.338 69.8814C117.602 69.8814 130.793 83.0034 130.793 99.1822V128.483L153.35 150.922V47.4424H49.3262Z" fill="white"/>
<path d="M101.338 69.8817C93.2142 69.8817 85.8424 73.1663 80.5137 78.4671L130.777 128.467V99.1663C130.777 82.9874 117.586 69.8655 101.322 69.8655L101.338 69.8817Z" fill="#3763FF"/>
<path d="M130.793 128.483H71.8838L101.339 99.1821L130.793 128.483Z" fill="#D3DDFF"/>
<path d="M153.35 150.923H49.3262L71.8832 128.484H130.793L153.35 150.923Z" fill="#363636"/>
<path d="M80.5136 78.4668L49.3262 47.4424V150.922L71.8832 128.483V99.1822C71.8832 91.1009 75.185 83.7676 80.5136 78.4668Z" fill="#363636"/>
<path d="M80.5143 78.467C75.1856 83.7679 71.8838 91.0849 71.8838 99.1825V128.483L101.339 99.1825L80.5143 78.467Z" fill="white"/>
</g>
<defs>
<clipPath id="clip0_1535_9388">
<rect width="200" height="200" fill="white"/>
</clipPath>
</defs>
</svg>
